<svg xmlns="http://www.w3.org/2000/svg" width="82" height="82" viewBox="0 0 82 82">
  <defs>
    <style>
      .cls-1, .cls-2, .cls-6, .cls-9 {
        fill: none;
      }

      .cls-1 {
        opacity: 0.98;
      }

      .cls-2 {
        stroke: #fff;
      }

      .cls-2, .cls-6, .cls-9 {
        stroke-linecap: round;
        stroke-linejoin: round;
      }

      .cls-2, .cls-8 {
        stroke-width: 0.5px;
      }

      .cls-3 {
        fill: #f6f7fb;
      }

      .cls-4 {
        fill: #84baf0;
      }

      .cls-5 {
        fill: #fff;
      }

      .cls-6, .cls-8 {
        stroke: #0875e2;
      }

      .cls-6, .cls-9 {
        stroke-width: 1.5px;
      }

      .cls-12, .cls-7, .cls-8 {
        fill: #0875e2;
      }

      .cls-8 {
        stroke-miterlimit: 10;
      }

      .cls-9 {
        stroke: #2a3a8d;
      }

      .cls-10, .cls-11, .cls-12 {
        stroke: none;
      }

      .cls-11 {
        fill: #2a3a8d;
      }
    </style>
  </defs>
  <g id="Group_21217" data-name="Group 21217" transform="translate(-859.68 -542.68)">
    <rect id="Rectangle_4439" data-name="Rectangle 4439" class="cls-1" width="82" height="82" rx="23" transform="translate(941.68 542.68) rotate(90)"/>
    <path id="Path_18074" data-name="Path 18074" class="cls-2" d="M-7778.2-1656.83s.764-3.43,2.668-3.261-.99,3.261-.99,3.261h1.414l.705-.383,1.951.383s.533-.715,1.021-.715.93.715.93.715l2.923.38" transform="translate(8694.723 2261.58)"/>
    <g id="Path_18035" data-name="Path 18035" class="cls-3" transform="translate(867.672 567.257)">
      <path class="cls-10" d="M 61.53217697143555 41.18552017211914 L 2.637085199356079 41.18552017211914 C 0.7694452404975891 41.18552017211914 -0.7499947547912598 39.66606903076172 -0.7499947547912598 37.79841995239258 L -0.7499947547912598 2.637099981307983 C -0.7499947547912598 0.7694500684738159 0.7694452404975891 -0.7499999403953552 2.637085199356079 -0.7499999403953552 L 61.53217697143555 -0.7499999403953552 C 63.39981460571289 -0.7499999403953552 64.91925811767578 0.7694500684738159 64.91925811767578 2.637099981307983 L 64.91925811767578 37.79841995239258 C 64.91925811767578 39.66606903076172 63.39981460571289 41.18552017211914 61.53217697143555 41.18552017211914 Z"/>
      <path class="cls-11" d="M 2.6370849609375 0 C 1.1806640625 0 -7.62939453125e-06 1.180671691894531 -7.62939453125e-06 2.637100219726562 L -7.62939453125e-06 37.79841995239258 C -7.62939453125e-06 39.25484848022461 1.1806640625 40.43552017211914 2.6370849609375 40.43552017211914 L 61.53217697143555 40.43552017211914 C 62.98858642578125 40.43552017211914 64.16924285888672 39.25484848022461 64.16924285888672 37.79841995239258 L 64.16924285888672 2.637100219726562 C 64.16924285888672 1.180671691894531 62.98858642578125 0 61.53217697143555 0 L 2.6370849609375 0 M 2.6370849609375 -1.5 L 61.53217697143555 -1.5 C 63.8133659362793 -1.5 65.66924285888672 0.3558998107910156 65.66924285888672 2.637100219726562 L 65.66924285888672 37.79841995239258 C 65.66924285888672 40.07962036132812 63.8133659362793 41.93552017211914 61.53217697143555 41.93552017211914 L 2.6370849609375 41.93552017211914 C 0.3558845520019531 41.93552017211914 -1.500007629394531 40.07962036132812 -1.500007629394531 37.79841995239258 L -1.500007629394531 2.637100219726562 C -1.500007629394531 0.3558998107910156 0.3558845520019531 -1.5 2.6370849609375 -1.5 Z"/>
    </g>
    <g id="Group_19510" data-name="Group 19510" transform="translate(875.371 579.754)">
      <rect id="Rectangle_4225" data-name="Rectangle 4225" class="cls-4" width="15.294" height="1.429" rx="0.714" transform="translate(15.296 0)"/>
      <rect id="Rectangle_4364" data-name="Rectangle 4364" class="cls-4" width="15.294" height="1.429" rx="0.714" transform="translate(15.296 4.591)"/>
      <rect id="Rectangle_4224" data-name="Rectangle 4224" class="cls-4" width="30.591" height="1.429" rx="0.714" transform="translate(0 11.615)"/>
      <rect id="Rectangle_4639" data-name="Rectangle 4639" class="cls-4" width="30.591" height="1.429" rx="0.714" transform="translate(0 16.17)"/>
    </g>
    <g id="Group_19472" data-name="Group 19472" transform="translate(921.216 561.069)">
      <g id="Path_18117" data-name="Path 18117" class="cls-5" transform="translate(0 0)">
        <path class="cls-10" d="M 8.212198257446289 15.67439651489258 C 4.097528457641602 15.67439651489258 0.7499982714653015 12.32686614990234 0.7499982714653015 8.212196350097656 C 0.7499982714653015 4.097526550292969 4.097528457641602 0.7499963641166687 8.212198257446289 0.7499963641166687 C 12.32686805725098 0.7499963641166687 15.67439842224121 4.097526550292969 15.67439842224121 8.212196350097656 C 15.67439842224121 12.32686614990234 12.32686805725098 15.67439651489258 8.212198257446289 15.67439651489258 Z"/>
        <path class="cls-12" d="M 8.212198257446289 1.499996185302734 C 4.511077880859375 1.499996185302734 1.499998092651367 4.511075973510742 1.499998092651367 8.212196350097656 C 1.499998092651367 11.91331672668457 4.511077880859375 14.92439651489258 8.212198257446289 14.92439651489258 C 11.9133186340332 14.92439651489258 14.92439842224121 11.91331672668457 14.92439842224121 8.212196350097656 C 14.92439842224121 4.511075973510742 11.9133186340332 1.499996185302734 8.212198257446289 1.499996185302734 M 8.212198257446289 -3.814697265625e-06 C 12.74766826629639 -3.814697265625e-06 16.42439842224121 3.676726341247559 16.42439842224121 8.212196350097656 C 16.42439842224121 12.74766635894775 12.74766826629639 16.42439651489258 8.212198257446289 16.42439651489258 C 3.676728248596191 16.42439651489258 -1.9073486328125e-06 12.74766635894775 -1.9073486328125e-06 8.212196350097656 C -1.9073486328125e-06 3.676726341247559 3.676728248596191 -3.814697265625e-06 8.212198257446289 -3.814697265625e-06 Z"/>
      </g>
      <path id="Path_17991" data-name="Path 17991" class="cls-6" d="M-6547.358-1896.779l2.664,2.938,5.722-5.482" transform="translate(6551.243 1905.532)"/>
    </g>
    <g id="Group_19509" data-name="Group 19509" transform="translate(909.443 580.068)">
      <path id="Path_16433" data-name="Path 16433" class="cls-7" d="M5.206,0H0V5.206H5.206ZM4.165,4.165H1.041V1.041H4.165Z" transform="translate(0 0.624)"/>
      <rect id="Rectangle_3793" data-name="Rectangle 3793" class="cls-7" width="1.552" height="0.776" transform="translate(2.758 2.328)"/>
      <path id="Path_16434" data-name="Path 16434" class="cls-7" d="M352,0V5.206h5.206V0Zm4.165,4.165h-3.124V1.041h3.124Z" transform="translate(-340.547 0.624)"/>
      <rect id="Rectangle_3794" data-name="Rectangle 3794" class="cls-7" width="1.552" height="0.776" transform="translate(12.848 2.328)"/>
      <path id="Path_16435" data-name="Path 16435" class="cls-7" d="M0,357.206H5.206V352H0Zm1.041-4.165H4.165v3.124H1.041Z" transform="translate(0 -339.922)"/>
      <rect id="Rectangle_3795" data-name="Rectangle 3795" class="cls-7" width="1.552" height="1.552" transform="translate(2.758 13.971)"/>
      <rect id="Rectangle_3796" data-name="Rectangle 3796" class="cls-7" width="0.776" height="1.552" transform="translate(8.967)"/>
      <path id="Path_16436" data-name="Path 16436" class="cls-7" d="M194.082,35.124h1.041V34.082h1.041V33.041h-3.124V32H192v2.082h2.083Z" transform="translate(-185.753 -30.335)"/>
      <rect id="Rectangle_3797" data-name="Rectangle 3797" class="cls-7" width="1.552" height="0.776" transform="translate(6.639 5.433)"/>
      <path id="Path_16437" data-name="Path 16437" class="cls-7" d="M196.165,160h-1.041v1.041H192v1.041h4.165Z" transform="translate(-185.753 -154.17)"/>
      <path id="Path_16438" data-name="Path 16438" class="cls-7" d="M1.041,195.124H2.082v-1.041H1.041V192H0v4.165H1.041Z" transform="translate(0 -185.128)"/>
      <rect id="Rectangle_3798" data-name="Rectangle 3798" class="cls-7" width="1.552" height="0.776" transform="translate(2.758 6.985)"/>
      <path id="Path_16439" data-name="Path 16439" class="cls-7" d="M99.124,196.165h2.082v-1.041h-1.041v-1.041H98.082V192H97.041v2.082H96v2.082h1.041v-1.041h2.082Z" transform="translate(-92.876 -185.128)"/>
      <rect id="Rectangle_3799" data-name="Rectangle 3799" class="cls-7" width="0.776" height="2.328" transform="translate(8.967 8.538)"/>
      <path id="Path_16440" data-name="Path 16440" class="cls-7" d="M195.124,352H192v1.041h2.083v3.124H192v1.041h3.124v-1.041h2.082v-1.041h-2.082Z" transform="translate(-185.753 -339.922)"/>
      <rect id="Rectangle_3800" data-name="Rectangle 3800" class="cls-7" width="1.552" height="1.552" transform="translate(6.639 13.971)"/>
      <rect id="Rectangle_3801" data-name="Rectangle 3801" class="cls-7" width="1.552" height="1.552" transform="translate(9.743 12.419)"/>
      <path id="Path_16441" data-name="Path 16441" class="cls-7" d="M387.124,416H384v3.124h1.041v-2.082h2.082Z" transform="translate(-371.505 -401.84)"/>
      <rect id="Rectangle_3802" data-name="Rectangle 3802" class="cls-7" width="1.552" height="0.776" transform="translate(14.4 16.299)"/>
      <rect id="Rectangle_3803" data-name="Rectangle 3803" class="cls-7" width="0.776" height="1.552" transform="translate(15.176 12.419)"/>
      <path id="Path_16442" data-name="Path 16442" class="cls-7" d="M353.041,291.124h1.041V288H352v1.041h1.041Z" transform="translate(-340.547 -278.005)"/>
      <path id="Path_16443" data-name="Path 16443" class="cls-7" d="M355.124,193.041h-1.041V192h-1.041v1.041H352v1.041h4.165v-1.041h1.041V192h-2.082Z" transform="translate(-340.547 -185.128)"/>
      <rect id="Rectangle_3804" data-name="Rectangle 3804" class="cls-7" width="1.552" height="0.776" transform="translate(14.4 10.09)"/>
    </g>
    <path id="Path_18309" data-name="Path 18309" class="cls-8" d="M483.089,406.94l.231.1a4.66,4.66,0,0,1,2.53,2.684.9.9,0,0,1,.129.45.378.378,0,0,1-.537.329.274.274,0,0,1-.145-.141,3.874,3.874,0,0,0-.958-1.539,4.152,4.152,0,0,0-3.173-1.324,4.284,4.284,0,0,0-3.944,2.625c-.027.056-.046.115-.075.17a.389.389,0,0,1-.407.186.334.334,0,0,1-.3-.28.786.786,0,0,1,.062-.3,4.806,4.806,0,0,1,2.631-2.9c.039-.017.077-.037.131-.063a3.706,3.706,0,0,1-1.821-3.269,3.588,3.588,0,0,1,1.138-2.655,3.745,3.745,0,0,1,5.315.128,3.618,3.618,0,0,1,.977,3.089A3.682,3.682,0,0,1,483.089,406.94Zm-1.871-.37a2.858,2.858,0,1,0-2.9-2.813A2.91,2.91,0,0,0,481.218,406.57Z" transform="translate(400.017 176.991)"/>
    <g id="Group_19511" data-name="Group 19511" transform="translate(919.577 559.998)">
      <g id="Path_18117-2" data-name="Path 18117" class="cls-3" transform="translate(0)">
        <path class="cls-10" d="M 10.03501892089844 19.32003974914551 C 4.915238857269287 19.32003974914551 0.749998927116394 15.15479850769043 0.749998927116394 10.03501892089844 C 0.749998927116394 4.915238857269287 4.915238857269287 0.749998927116394 10.03501892089844 0.749998927116394 C 15.15479850769043 0.749998927116394 19.32003974914551 4.915238857269287 19.32003974914551 10.03501892089844 C 19.32003974914551 15.15479850769043 15.15479850769043 19.32003974914551 10.03501892089844 19.32003974914551 Z"/>
        <path class="cls-11" d="M 10.03501892089844 1.499998092651367 C 5.328788757324219 1.499998092651367 1.499998092651367 5.328788757324219 1.499998092651367 10.03501892089844 C 1.499998092651367 14.74124908447266 5.328788757324219 18.57003974914551 10.03501892089844 18.57003974914551 C 14.74124908447266 18.57003974914551 18.57003974914551 14.74124908447266 18.57003974914551 10.03501892089844 C 18.57003974914551 5.328788757324219 14.74124908447266 1.499998092651367 10.03501892089844 1.499998092651367 M 10.03501892089844 -1.9073486328125e-06 C 15.57720947265625 -1.9073486328125e-06 20.07003974914551 4.492829322814941 20.07003974914551 10.03501892089844 C 20.07003974914551 15.57720947265625 15.57720947265625 20.07003974914551 10.03501892089844 20.07003974914551 C 4.492829322814941 20.07003974914551 -1.9073486328125e-06 15.57720947265625 -1.9073486328125e-06 10.03501892089844 C -1.9073486328125e-06 4.492829322814941 4.492829322814941 -1.9073486328125e-06 10.03501892089844 -1.9073486328125e-06 Z"/>
      </g>
      <path id="Path_17991-2" data-name="Path 17991" class="cls-9" d="M-6547.357-1896.214l3.255,3.59,6.992-6.7" transform="translate(6552.105 1906.262)"/>
    </g>
  </g>
</svg>
