<svg xmlns="http://www.w3.org/2000/svg" width="82" height="82" viewBox="0 0 82 82">
  <defs>
    <style>
      .cls-1, .cls-2, .cls-6, .cls-7, .cls-9 {
        fill: none;
      }

      .cls-1, .cls-2 {
        stroke: rgba(226,226,226,0);
      }

      .cls-2 {
        opacity: 0;
      }

      .cls-3 {
        fill: #f6f7fb;
      }

      .cls-4 {
        fill: #84baf0;
      }

      .cls-11, .cls-5 {
        fill: #0875e2;
      }

      .cls-6 {
        stroke: #0875e2;
      }

      .cls-6, .cls-7 {
        stroke-linecap: round;
        stroke-linejoin: round;
        stroke-width: 1.5px;
      }

      .cls-7 {
        stroke: #2a3a8d;
      }

      .cls-10, .cls-11, .cls-12, .cls-8 {
        stroke: none;
      }

      .cls-10 {
        fill: #2a3a8d;
      }

      .cls-12 {
        fill: #29398d;
      }
    </style>
  </defs>
  <g id="Group_20359" data-name="Group 20359" transform="translate(-271 -237)">
    <g id="Group_20339" data-name="Group 20339" transform="translate(-361 -62)">
      <g id="Group_14723" data-name="Group 14723" transform="translate(632 299)">
        <g id="Rectangle_3860" data-name="Rectangle 3860" class="cls-1">
          <rect class="cls-8" width="82" height="82"/>
          <rect class="cls-9" x="0.5" y="0.5" width="81" height="81"/>
        </g>
      </g>
      <g id="Ellipse_681" data-name="Ellipse 681" class="cls-2" transform="translate(648 315)">
        <circle class="cls-8" cx="25" cy="25" r="25"/>
        <circle class="cls-9" cx="25" cy="25" r="24.5"/>
      </g>
    </g>
    <g id="Group_20310" data-name="Group 20310" transform="translate(3.32 -1.96)">
      <g id="Group_19544" data-name="Group 19544" transform="translate(271.68 242)">
        <g id="Group_19533" data-name="Group 19533" transform="translate(8.143 3.996)">
          <g id="Path_18115" data-name="Path 18115" class="cls-3" transform="translate(0 25.449)">
            <path class="cls-8" d="M 53.84696960449219 37.12777328491211 L 3.550348043441772 37.12777328491211 C 2.006227970123291 37.12777328491211 0.7499979734420776 35.87123489379883 0.7499979734420776 34.32673645019531 L 0.7499979734420776 3.551044702529907 C 0.7499979734420776 2.006544828414917 2.006227970123291 0.7500047087669373 3.550348043441772 0.7500047087669373 L 53.84696960449219 0.7500047087669373 C 55.39108657836914 0.7500047087669373 56.64731979370117 2.006544828414917 56.64731979370117 3.551044702529907 L 56.64731979370117 34.32673645019531 C 56.64731979370117 35.87123489379883 55.39108657836914 37.12777328491211 53.84696960449219 37.12777328491211 Z"/>
            <path class="cls-10" d="M 3.550346374511719 1.499996185302734 C 2.419776916503906 1.499996185302734 1.499996185302734 2.420093536376953 1.499996185302734 3.551044464111328 L 1.499996185302734 34.32673645019531 C 1.499996185302734 35.45767593383789 2.419776916503906 36.37776565551758 3.550346374511719 36.37776565551758 L 53.84695816040039 36.37776565551758 C 54.9775276184082 36.37776565551758 55.89731979370117 35.45767593383789 55.89731979370117 34.32673645019531 L 55.89731979370117 3.551044464111328 C 55.89731979370117 2.420093536376953 54.9775276184082 1.499996185302734 53.84695816040039 1.499996185302734 L 3.550346374511719 1.499996185302734 M 3.550346374511719 -3.814697265625e-06 L 53.84695816040039 -3.814697265625e-06 C 55.80776977539062 -3.814697265625e-06 57.39731979370117 1.589855194091797 57.39731979370117 3.551044464111328 L 57.39731979370117 34.32673645019531 C 57.39731979370117 36.28791427612305 55.80776977539062 37.87776565551758 53.84695816040039 37.87776565551758 L 3.550346374511719 37.87776565551758 C 1.589546203613281 37.87776565551758 -3.814697265625e-06 36.28791427612305 -3.814697265625e-06 34.32673645019531 L -3.814697265625e-06 3.551044464111328 C -3.814697265625e-06 1.589855194091797 1.589546203613281 -3.814697265625e-06 3.550346374511719 -3.814697265625e-06 Z"/>
          </g>
          <g id="Path_17984" data-name="Path 17984" class="cls-3" transform="translate(9.489 9.911)">
            <path class="cls-8" d="M 37.66937637329102 47.69685363769531 L 0.7499963045120239 47.69685363769531 L 0.7499963045120239 8.259347915649414 L 8.192298889160156 0.7500048875808716 L 35.5734977722168 0.7500048875808716 C 36.72916793823242 0.7500048875808716 37.66937637329102 1.4912348985672 37.66937637329102 2.402324914932251 L 37.66937637329102 47.69685363769531 Z"/>
            <path class="cls-11" d="M 8.504932403564453 1.499996185302734 L 1.499996185302734 8.568038940429688 L 1.499996185302734 46.94684600830078 L 36.91937637329102 46.94684600830078 L 36.91937637329102 2.402324676513672 C 36.91937637329102 1.975536346435547 36.36664581298828 1.499996185302734 35.5734977722168 1.499996185302734 L 8.504932403564453 1.499996185302734 M 7.879665374755859 -3.814697265625e-06 L 35.5734977722168 -3.814697265625e-06 C 37.14522552490234 -3.814697265625e-06 38.41937637329102 1.075553894042969 38.41937637329102 2.402324676513672 L 38.41937637329102 48.44684600830078 L -3.814697265625e-06 48.44684600830078 L -3.814697265625e-06 7.950653076171875 L 7.879665374755859 -3.814697265625e-06 Z"/>
          </g>
          <g id="Path_17987" data-name="Path 17987" class="cls-3" transform="translate(0 34.16)">
            <path class="cls-8" d="M 54.55127334594727 28.41640281677246 L 2.846153259277344 28.41640281677246 C 1.690333247184753 28.41640281677246 0.7500032782554626 27.46590232849121 0.7500032782554626 26.29758262634277 L 0.7500032782554626 1.576936364173889 L 27.16483306884766 23.06513214111328 L 27.62101364135742 23.43624305725098 L 28.09023284912109 23.08174324035645 L 56.64742279052734 1.506613731384277 L 56.64742279052734 26.29758262634277 C 56.64742279052734 27.46590232849121 55.70709228515625 28.41640281677246 54.55127334594727 28.41640281677246 Z"/>
            <path class="cls-10" d="M 55.89742279052734 3.013227462768555 L 28.54233360290527 23.68016242980957 L 27.60391235351562 24.3891429901123 L 26.69154357910156 23.64694213867188 L 1.500003814697266 3.153881072998047 L 1.500003814697266 26.29757308959961 C 1.500003814697266 27.05235290527344 2.1038818359375 27.66640281677246 2.846153259277344 27.66640281677246 L 54.55126190185547 27.66640281677246 C 55.29354476928711 27.66640281677246 55.89742279052734 27.05235290527344 55.89742279052734 26.29757308959961 L 55.89742279052734 3.013227462768555 M 3.814697265625e-06 1.9073486328125e-06 L 27.63812255859375 22.48333168029785 L 57.39742279052734 1.9073486328125e-06 L 57.39742279052734 26.29757308959961 C 57.39742279052734 27.88198280334473 56.12316513061523 29.16640281677246 54.55126190185547 29.16640281677246 L 2.846153259277344 29.16640281677246 C 1.274261474609375 29.16640281677246 3.814697265625e-06 27.88198280334473 3.814697265625e-06 26.29757308959961 L 3.814697265625e-06 1.9073486328125e-06 Z"/>
          </g>
          <g id="Path_17988" data-name="Path 17988" class="cls-3" transform="translate(-30.328 34.16)">
            <path class="cls-8" d="M 84.85631561279297 28.41640281677246 L 64.0765380859375 28.41640281677246 L 58.13265228271484 23.3234920501709 L 86.97515106201172 1.507661461830139 L 86.97515106201172 26.29758262634277 C 86.97515106201172 27.46590232849121 86.02465057373047 28.41640281677246 84.85631561279297 28.41640281677246 Z"/>
            <path class="cls-12" d="M 84.85631561279297 27.66640281677246 C 85.61109924316406 27.66640281677246 86.22515106201172 27.05235290527344 86.22515106201172 26.29758262634277 L 86.22515106201172 3.01533055305481 L 59.32780838012695 23.35988616943359 L 64.35389709472656 27.66640281677246 L 84.85631561279297 27.66640281677246 M 84.85631561279297 29.16640281677246 L 63.79916763305664 29.16640281677246 L 56.9375 23.28710174560547 L 87.72515106201172 2.362060513405595e-06 L 87.72515106201172 26.29758262634277 C 87.72515106201172 27.88198280334473 86.44071960449219 29.16640281677246 84.85631561279297 29.16640281677246 Z"/>
          </g>
          <g id="Path_18118" data-name="Path 18118" class="cls-4" transform="translate(19.328 35.423)">
            <path class="cls-8" d="M 18.53797721862793 0.7798590064048767 L 0.5979964733123779 0.7798590064048767 C 0.5516464710235596 0.7798590064048767 0.4999964833259583 0.7223889827728271 0.4999964833259583 0.6399289965629578 C 0.4999964833259583 0.5574690103530884 0.5516464710235596 0.4999989867210388 0.5979964733123779 0.4999989867210388 L 18.53797721862793 0.4999989867210388 C 18.58432579040527 0.4999989867210388 18.63597679138184 0.5574690103530884 18.63597679138184 0.6399289965629578 C 18.63597679138184 0.7223889827728271 18.58432579040527 0.7798590064048767 18.53797721862793 0.7798590064048767 Z"/>
            <path class="cls-11" d="M 0.5979957580566406 -9.5367431640625e-07 L 18.53797721862793 -9.5367431640625e-07 C 18.86823654174805 -9.5367431640625e-07 19.13597679138184 0.2865089774131775 19.13597679138184 0.6399289965629578 C 19.13597679138184 0.9933489561080933 18.86823654174805 1.279858946800232 18.53797721862793 1.279858946800232 L 0.5979957580566406 1.279858946800232 C 0.2677364349365234 1.279858946800232 -3.814697265625e-06 0.9933489561080933 -3.814697265625e-06 0.6399289965629578 C -3.814697265625e-06 0.2865089774131775 0.2677364349365234 -9.5367431640625e-07 0.5979957580566406 -9.5367431640625e-07 Z"/>
          </g>
          <g id="Path_18293" data-name="Path 18293" class="cls-4" transform="translate(19.328 38.382)">
            <path class="cls-8" d="M 18.53797721862793 0.7798590064048767 L 0.5979964733123779 0.7798590064048767 C 0.5516464710235596 0.7798590064048767 0.4999964833259583 0.7223889827728271 0.4999964833259583 0.6399289965629578 C 0.4999964833259583 0.5574690103530884 0.5516464710235596 0.4999989867210388 0.5979964733123779 0.4999989867210388 L 18.53797721862793 0.4999989867210388 C 18.58432579040527 0.4999989867210388 18.63597679138184 0.5574690103530884 18.63597679138184 0.6399289965629578 C 18.63597679138184 0.7223889827728271 18.58432579040527 0.7798590064048767 18.53797721862793 0.7798590064048767 Z"/>
            <path class="cls-11" d="M 0.5979957580566406 -9.5367431640625e-07 L 18.53797721862793 -9.5367431640625e-07 C 18.86823654174805 -9.5367431640625e-07 19.13597679138184 0.2865089774131775 19.13597679138184 0.6399289965629578 C 19.13597679138184 0.9933489561080933 18.86823654174805 1.279858946800232 18.53797721862793 1.279858946800232 L 0.5979957580566406 1.279858946800232 C 0.2677364349365234 1.279858946800232 -3.814697265625e-06 0.9933489561080933 -3.814697265625e-06 0.6399289965629578 C -3.814697265625e-06 0.2865089774131775 0.2677364349365234 -9.5367431640625e-07 0.5979957580566406 -9.5367431640625e-07 Z"/>
          </g>
          <g id="Path_18294" data-name="Path 18294" class="cls-4" transform="translate(19.328 41.341)">
            <path class="cls-8" d="M 18.53797721862793 0.7798590064048767 L 0.5979964733123779 0.7798590064048767 C 0.5516464710235596 0.7798590064048767 0.4999964833259583 0.7223889827728271 0.4999964833259583 0.6399289965629578 C 0.4999964833259583 0.5574690103530884 0.5516464710235596 0.4999989867210388 0.5979964733123779 0.4999989867210388 L 18.53797721862793 0.4999989867210388 C 18.58432579040527 0.4999989867210388 18.63597679138184 0.5574690103530884 18.63597679138184 0.6399289965629578 C 18.63597679138184 0.7223889827728271 18.58432579040527 0.7798590064048767 18.53797721862793 0.7798590064048767 Z"/>
            <path class="cls-11" d="M 0.5979957580566406 -9.5367431640625e-07 L 18.53797721862793 -9.5367431640625e-07 C 18.86823654174805 -9.5367431640625e-07 19.13597679138184 0.2865089774131775 19.13597679138184 0.6399289965629578 C 19.13597679138184 0.9933489561080933 18.86823654174805 1.279858946800232 18.53797721862793 1.279858946800232 L 0.5979957580566406 1.279858946800232 C 0.2677364349365234 1.279858946800232 -3.814697265625e-06 0.9933489561080933 -3.814697265625e-06 0.6399289965629578 C -3.814697265625e-06 0.2865089774131775 0.2677364349365234 -9.5367431640625e-07 0.5979957580566406 -9.5367431640625e-07 Z"/>
          </g>
          <path id="Path_18116" data-name="Path 18116" class="cls-5" d="M2.073-3.772H.946v-5.47H2.073ZM7.235-8.329H5.559v4.557H4.432V-8.329H2.779v-.913H7.235ZM9.9-5.775H9v2H7.877v-5.47H9.91a2.3,2.3,0,0,1,1.5.432,1.491,1.491,0,0,1,.526,1.221,1.683,1.683,0,0,1-.242.934,1.653,1.653,0,0,1-.734.6l1.183,2.235v.053h-1.21ZM9-6.688h.909a.931.931,0,0,0,.657-.216.772.772,0,0,0,.233-.6.826.826,0,0,0-.22-.609.913.913,0,0,0-.674-.222H9Z" transform="translate(22.098 33.956)"/>
          <path id="Path_18121" data-name="Path 18121" class="cls-6" d="M-4574,39.6v7.112h-6.871" transform="translate(4591.597 -28.59)"/>
          <g id="Group_19471" data-name="Group 19471" transform="translate(36.091 0)">
            <g id="Path_18117" data-name="Path 18117" class="cls-3">
              <path class="cls-8" d="M 9.173521995544434 17.59704208374023 C 4.528781890869141 17.59704208374023 0.7500019669532776 13.81826210021973 0.7500019669532776 9.173521995544434 C 0.7500019669532776 4.528781890869141 4.528781890869141 0.7500019669532776 9.173521995544434 0.7500019669532776 C 13.81826210021973 0.7500019669532776 17.59704208374023 4.528781890869141 17.59704208374023 9.173521995544434 C 17.59704208374023 13.81826210021973 13.81826210021973 17.59704208374023 9.173521995544434 17.59704208374023 Z"/>
              <path class="cls-10" d="M 9.173521995544434 1.500001907348633 C 4.94233226776123 1.500001907348633 1.500001907348633 4.94233226776123 1.500001907348633 9.173521995544434 C 1.500001907348633 13.40471267700195 4.94233226776123 16.84704208374023 9.173521995544434 16.84704208374023 C 13.40471267700195 16.84704208374023 16.84704208374023 13.40471267700195 16.84704208374023 9.173521995544434 C 16.84704208374023 4.94233226776123 13.40471267700195 1.500001907348633 9.173521995544434 1.500001907348633 M 9.173521995544434 1.9073486328125e-06 C 14.23992156982422 1.9073486328125e-06 18.34704208374023 4.107122421264648 18.34704208374023 9.173521995544434 C 18.34704208374023 14.23992156982422 14.23992156982422 18.34704208374023 9.173521995544434 18.34704208374023 C 4.107122421264648 18.34704208374023 1.9073486328125e-06 14.23992156982422 1.9073486328125e-06 9.173521995544434 C 1.9073486328125e-06 4.107122421264648 4.107122421264648 1.9073486328125e-06 9.173521995544434 1.9073486328125e-06 Z"/>
            </g>
            <path id="Path_17991" data-name="Path 17991" class="cls-7" d="M-6547.358-1896.481l2.976,3.282,6.392-6.124" transform="translate(6551.698 1905.667)"/>
          </g>
        </g>
      </g>
    </g>
  </g>
</svg>
