<svg xmlns="http://www.w3.org/2000/svg" width="82" height="82" viewBox="0 0 82 82">
  <defs>
    <style>
      .cls-1, .cls-3 {
        opacity: 0;
      }

      .cls-11, .cls-2, .cls-3, .cls-4, .cls-8, .cls-9 {
        fill: none;
      }

      .cls-2 {
        stroke: #e2e2e2;
      }

      .cls-3 {
        stroke: #00e2ff;
      }

      .cls-5 {
        fill: #f6f7fb;
      }

      .cls-6, .cls-7 {
        fill: #0875e2;
      }

      .cls-8 {
        stroke: #2183e5;
      }

      .cls-11, .cls-8 {
        stroke-linecap: round;
      }

      .cls-11, .cls-8, .cls-9 {
        stroke-linejoin: round;
        stroke-width: 1.5px;
      }

      .cls-11, .cls-9 {
        stroke: #2a3a8d;
      }

      .cls-10 {
        fill: #f5f5f5;
      }

      .cls-12, .cls-14 {
        fill: #2a3a8d;
      }

      .cls-13, .cls-14, .cls-15 {
        stroke: none;
      }

      .cls-15 {
        fill: #2183e5;
      }
    </style>
  </defs>
  <g id="Group_20367" data-name="Group 20367" transform="translate(-273 -844)">
    <g id="Group_20355" data-name="Group 20355" class="cls-1" transform="translate(-359 545)">
      <g id="Group_14723" data-name="Group 14723" transform="translate(632 299)">
        <g id="Rectangle_3860" data-name="Rectangle 3860" class="cls-2">
          <rect class="cls-13" width="82" height="82"/>
          <rect class="cls-4" x="0.5" y="0.5" width="81" height="81"/>
        </g>
      </g>
      <g id="Ellipse_681" data-name="Ellipse 681" class="cls-3" transform="translate(648 315)">
        <circle class="cls-13" cx="25" cy="25" r="25"/>
        <circle class="cls-4" cx="25" cy="25" r="24.5"/>
      </g>
    </g>
    <g id="Group_20357" data-name="Group 20357" transform="translate(-5 -2)">
      <g id="Group_20337" data-name="Group 20337" transform="translate(283 849)">
        <rect id="Rectangle_4638" data-name="Rectangle 4638" class="cls-4" width="75" height="75"/>
        <g id="Group_20319" data-name="Group 20319" transform="translate(13.542 11.458)">
          <g id="Path_20052" data-name="Path 20052" class="cls-5" transform="translate(0)">
            <path class="cls-13" d="M 39.58332824707031 55.5 L 4.166669845581055 55.5 C 2.282710075378418 55.5 0.75 53.96728897094727 0.75 52.08333969116211 L 0.75 10.72732830047607 L 10.72733020782471 0.7499980926513672 L 39.58332824707031 0.7499980926513672 C 41.46728897094727 0.7499980926513672 43 2.282708168029785 43 4.166667938232422 L 43 52.08333969116211 C 43 53.96728897094727 41.46728897094727 55.5 39.58332824707031 55.5 Z"/>
            <path class="cls-14" d="M 11.03797912597656 1.499996185302734 L 1.5 11.03798675537109 L 1.5 52.08332824707031 C 1.5 53.55373764038086 2.696258544921875 54.75 4.166671752929688 54.75 L 39.58332824707031 54.75 C 41.05374145507812 54.75 42.25 53.55373764038086 42.25 52.08332824707031 L 42.25 4.166667938232422 C 42.25 2.696258544921875 41.05374145507812 1.499996185302734 39.58332824707031 1.499996185302734 L 11.03797912597656 1.499996185302734 M 10.41666030883789 -3.814697265625e-06 L 39.58332824707031 -3.814697265625e-06 C 41.884521484375 -3.814697265625e-06 43.75 1.865478515625 43.75 4.166667938232422 L 43.75 52.08332824707031 C 43.75 54.38451766967773 41.884521484375 56.25 39.58332824707031 56.25 L 4.166671752929688 56.25 C 1.865478515625 56.25 0 54.38451766967773 0 52.08332824707031 L 0 10.41666793823242 L 10.41666030883789 -3.814697265625e-06 Z"/>
          </g>
          <g id="Path_18118" data-name="Path 18118" class="cls-6" transform="translate(11.244 33.067)">
            <path class="cls-13" d="M 20.99834060668945 0.9497177600860596 L 0.6773615479469299 0.9497177600860596 C 0.5812215209007263 0.9497177600860596 0.5000015497207642 0.8467477560043335 0.5000015497207642 0.7248577475547791 C 0.5000015497207642 0.6029677391052246 0.5812215209007263 0.4999977350234985 0.6773615479469299 0.4999977350234985 L 20.99834060668945 0.4999977350234985 C 21.094482421875 0.4999977350234985 21.17570114135742 0.6029677391052246 21.17570114135742 0.7248577475547791 C 21.17570114135742 0.8467477560043335 21.094482421875 0.9497177600860596 20.99834060668945 0.9497177600860596 Z"/>
            <path class="cls-15" d="M 0.6773624420166016 -2.264976501464844e-06 L 20.99834060668945 -2.264976501464844e-06 C 21.3724308013916 -2.264976501464844e-06 21.67570114135742 0.3245277404785156 21.67570114135742 0.7248577475547791 C 21.67570114135742 1.125187754631042 21.3724308013916 1.44971776008606 20.99834060668945 1.44971776008606 L 0.6773624420166016 1.44971776008606 C 0.3032608032226562 1.44971776008606 1.9073486328125e-06 1.125187754631042 1.9073486328125e-06 0.7248577475547791 C 1.9073486328125e-06 0.3245277404785156 0.3032608032226562 -2.264976501464844e-06 0.6773624420166016 -2.264976501464844e-06 Z"/>
          </g>
          <g id="Path_18293" data-name="Path 18293" class="cls-6" transform="translate(11.244 36.419)">
            <path class="cls-13" d="M 20.99834060668945 0.9497177600860596 L 0.6773615479469299 0.9497177600860596 C 0.5812215209007263 0.9497177600860596 0.5000015497207642 0.8467477560043335 0.5000015497207642 0.7248577475547791 C 0.5000015497207642 0.6029677391052246 0.5812215209007263 0.4999977350234985 0.6773615479469299 0.4999977350234985 L 20.99834060668945 0.4999977350234985 C 21.094482421875 0.4999977350234985 21.17570114135742 0.6029677391052246 21.17570114135742 0.7248577475547791 C 21.17570114135742 0.8467477560043335 21.094482421875 0.9497177600860596 20.99834060668945 0.9497177600860596 Z"/>
            <path class="cls-15" d="M 0.6773624420166016 -2.264976501464844e-06 L 20.99834060668945 -2.264976501464844e-06 C 21.3724308013916 -2.264976501464844e-06 21.67570114135742 0.3245277404785156 21.67570114135742 0.7248577475547791 C 21.67570114135742 1.125187754631042 21.3724308013916 1.44971776008606 20.99834060668945 1.44971776008606 L 0.6773624420166016 1.44971776008606 C 0.3032608032226562 1.44971776008606 1.9073486328125e-06 1.125187754631042 1.9073486328125e-06 0.7248577475547791 C 1.9073486328125e-06 0.3245277404785156 0.3032608032226562 -2.264976501464844e-06 0.6773624420166016 -2.264976501464844e-06 Z"/>
          </g>
          <g id="Path_18294" data-name="Path 18294" class="cls-6" transform="translate(11.244 39.771)">
            <path class="cls-13" d="M 20.99834060668945 0.9497177600860596 L 0.6773615479469299 0.9497177600860596 C 0.5812215209007263 0.9497177600860596 0.5000015497207642 0.8467477560043335 0.5000015497207642 0.7248577475547791 C 0.5000015497207642 0.6029677391052246 0.5812215209007263 0.4999977350234985 0.6773615479469299 0.4999977350234985 L 20.99834060668945 0.4999977350234985 C 21.094482421875 0.4999977350234985 21.17570114135742 0.6029677391052246 21.17570114135742 0.7248577475547791 C 21.17570114135742 0.8467477560043335 21.094482421875 0.9497177600860596 20.99834060668945 0.9497177600860596 Z"/>
            <path class="cls-15" d="M 0.6773624420166016 -2.264976501464844e-06 L 20.99834060668945 -2.264976501464844e-06 C 21.3724308013916 -2.264976501464844e-06 21.67570114135742 0.3245277404785156 21.67570114135742 0.7248577475547791 C 21.67570114135742 1.125187754631042 21.3724308013916 1.44971776008606 20.99834060668945 1.44971776008606 L 0.6773624420166016 1.44971776008606 C 0.3032608032226562 1.44971776008606 1.9073486328125e-06 1.125187754631042 1.9073486328125e-06 0.7248577475547791 C 1.9073486328125e-06 0.3245277404785156 0.3032608032226562 -2.264976501464844e-06 0.6773624420166016 -2.264976501464844e-06 Z"/>
          </g>
          <path id="Path_18116" data-name="Path 18116" class="cls-7" d="M2.222-3.046H.946v-6.2H2.222ZM8.069-8.208h-1.9v5.162H4.895V-8.208H3.022V-9.242H8.069Zm3.021,2.894H10.074v2.268H8.8v-6.2h2.3a2.6,2.6,0,0,1,1.694.489,1.689,1.689,0,0,1,.6,1.383,1.906,1.906,0,0,1-.274,1.057,1.872,1.872,0,0,1-.832.674l1.34,2.532v.06h-1.37ZM10.074-6.349H11.1a1.054,1.054,0,0,0,.745-.245.875.875,0,0,0,.264-.674.936.936,0,0,0-.249-.689,1.035,1.035,0,0,0-.764-.251H10.074Z" transform="translate(14.507 30.178)"/>
          <path id="Path_18121" data-name="Path 18121" class="cls-8" d="M-4581.539,49.546Z"/>
          <path id="Path_20053" data-name="Path 20053" class="cls-9" d="M.382,0V10.212H-9.165" transform="translate(10.556 0.521)"/>
        </g>
        <g id="hourglass_empty-24px_1_" data-name="hourglass_empty-24px (1)" transform="translate(47.917 9.691)">
          <path id="Path_20070" data-name="Path 20070" class="cls-4" d="M0,0H12.184V12.184H0Z"/>
        </g>
      </g>
      <g id="Group_20338" data-name="Group 20338" transform="translate(338.452 850.283) rotate(49)">
        <path id="Path_20073" data-name="Path 20073" class="cls-10" d="M9.033,0a9.072,9.072,0,1,0,9.033,9.072A9.052,9.052,0,0,0,9.033,0Z" transform="translate(0.108 1.428)"/>
        <path id="Path_20071" data-name="Path 20071" class="cls-11" d="M.469.226,4.744,0l.1,4.489" transform="matrix(-0.921, -0.391, 0.391, -0.921, 6.86, 6.497)"/>
        <path id="Path_20072" data-name="Path 20072" class="cls-12" d="M-34.836,5.24l.011,0a.78.78,0,0,1,.724-.5.782.782,0,0,1,.781.782.741.741,0,0,1-.035.172l.013,0a7.531,7.531,0,0,0-.281,2.009,7.66,7.66,0,0,0,7.651,7.651,7.659,7.659,0,0,0,7.65-7.651,7.658,7.658,0,0,0-7.65-7.65A7.612,7.612,0,0,0-31.086,2.04l-1.193-1.03A9.174,9.174,0,0,1-25.972-1.5,9.212,9.212,0,0,1-16.76,7.713a9.213,9.213,0,0,1-9.213,9.214,9.214,9.214,0,0,1-9.214-9.214A9.146,9.146,0,0,1-34.836,5.24Z" transform="translate(35.186 2.927)"/>
      </g>
    </g>
  </g>
</svg>
