<svg xmlns="http://www.w3.org/2000/svg" xmlns:xlink="http://www.w3.org/1999/xlink" width="82" height="82" viewBox="0 0 82 82">
  <defs>
    <style>
      .cls-1 {
        fill: #f1f2f2;
        stroke: #bcbec0;
      }

      .cls-1, .cls-13 {
        stroke-miterlimit: 10;
      }

      .cls-15, .cls-16, .cls-2, .cls-21, .cls-9 {
        fill: none;
      }

      .cls-2 {
        opacity: 0.98;
      }

      .cls-3 {
        fill: #f5f5f5;
      }

      .cls-4, .cls-5, .cls-6 {
        fill: #fff;
      }

      .cls-4 {
        opacity: 0.296;
      }

      .cls-5 {
        opacity: 0.259;
      }

      .cls-6 {
        opacity: 0.518;
      }

      .cls-7 {
        fill: #2b2b2b;
      }

      .cls-8 {
        clip-path: url(#clip-path);
      }

      .cls-9 {
        stroke: #fff;
        stroke-linecap: round;
        stroke-linejoin: round;
      }

      .cls-13, .cls-9 {
        stroke-width: 0.5px;
      }

      .cls-10 {
        fill: #f6f7fb;
      }

      .cls-11, .cls-17 {
        fill: #84baf0;
      }

      .cls-12, .cls-13 {
        fill: #0875e2;
      }

      .cls-13 {
        stroke: #0875e2;
      }

      .cls-14, .cls-16 {
        opacity: 0;
      }

      .cls-15 {
        stroke: #e2e2e2;
      }

      .cls-16 {
        stroke: #00e2ff;
      }

      .cls-17 {
        stroke: #84baf0;
      }

      .cls-18, .cls-20 {
        fill: #2a3a8d;
      }

      .cls-18 {
        stroke: #29398d;
      }

      .cls-19, .cls-20 {
        stroke: none;
      }
    </style>
    <clipPath id="clip-path">
      <rect id="Rectangle_4177" data-name="Rectangle 4177" class="cls-1" width="61.993" height="39.181" rx="14.185"/>
    </clipPath>
  </defs>
  <g id="Group_20382" data-name="Group 20382" transform="translate(-278 -539)">
    <rect id="Rectangle_4437" data-name="Rectangle 4437" class="cls-2" width="79" height="79" rx="23" transform="translate(360 541) rotate(90)"/>
    <g id="Path_18013" data-name="Path 18013" class="cls-3" transform="translate(292.521 550.661) rotate(12)">
      <path class="cls-19" d="M 59.08550643920898 38.1627197265625 L 59.08474349975586 38.1627197265625 L 2.546894550323486 38.1392707824707 C 1.564204573631287 38.13887023925781 0.7644045948982239 37.33694839477539 0.763994574546814 36.35165023803711 L 0.7500045895576477 2.534899950027466 C 0.7498046159744263 2.05778980255127 0.9349545836448669 1.609369874000549 1.271344542503357 1.272219896316528 C 1.607344627380371 0.9354598522186279 2.054144620895386 0.7499998807907104 2.529424667358398 0.7499998807907104 L 59.06803512573242 0.7734498381614685 C 60.05072402954102 0.7738598585128784 60.85052490234375 1.575779914855957 60.85093307495117 2.561059951782227 L 60.86492538452148 36.3778190612793 C 60.8651237487793 36.85491943359375 60.67997360229492 37.30334854125977 60.34358596801758 37.6404914855957 C 60.00758361816406 37.97726058959961 59.56078338623047 38.1627197265625 59.08550643920898 38.1627197265625 Z"/>
      <path class="cls-20" d="M 2.529422760009766 1.5 C 2.254795074462891 1.5 1.996543884277344 1.60723876953125 1.802253723144531 1.801959991455078 C 1.607223510742188 1.997428894042969 1.499885559082031 2.257621765136719 1.499996185302734 2.534591674804688 L 1.513996124267578 36.35134124755859 C 1.514236450195312 36.92341995239258 1.977725982666016 37.38903045654297 2.547203063964844 37.3892707824707 L 59.08550262451172 37.4127197265625 C 59.36012268066406 37.4127197265625 59.61837387084961 37.30548095703125 59.81265640258789 37.11075973510742 C 60.00769424438477 36.91527938842773 60.11503601074219 36.65509796142578 60.11492538452148 36.37812805175781 L 60.10093307495117 2.561370849609375 C 60.10069274902344 1.989288330078125 59.63720321655273 1.523681640625 59.06772613525391 1.523441314697266 L 2.530494689941406 1.5 L 2.529422760009766 1.5 M 2.529422760009766 0 C 2.529850006103516 0 2.530067443847656 0 2.530494689941406 0 L 59.06834411621094 0.02344131469726562 C 60.46646499633789 0.02402114868164062 61.6003532409668 1.160011291503906 61.60093307495117 2.560749053955078 L 61.61492538452148 36.37751007080078 C 61.61550521850586 37.77781295776367 60.48303604125977 38.9127197265625 59.08550643920898 38.9127197265625 C 59.08507919311523 38.9127197265625 59.08486175537109 38.9127197265625 59.08443450927734 38.9127197265625 L 2.546585083007812 38.8892707824707 C 1.148452758789062 38.88869094848633 0.01457595825195312 37.75270080566406 0.01399612426757812 36.35195922851562 L -3.814697265625e-06 2.535209655761719 C -0.000583648681640625 1.134899139404297 1.131870269775391 0 2.529422760009766 0 Z"/>
    </g>
    <path id="Path_18018" data-name="Path 18018" class="cls-4" d="M4.29,1.046A.181.181,0,0,0,4.276.881C4.2.763,3.979.739,3.921.734A.3.3,0,0,0,3.855.543.316.316,0,0,0,3.606.428a.536.536,0,0,0-.34.2c-.044-.038-.152,0-.2.022A.284.284,0,0,0,2.955.459C3.031.329,2.9.184,2.883.166,2.782-.094,1.788.02,1.629.057,1.485.09,1.506.23,1.518.314a.231.231,0,0,1,0,.056c-.036.015-.095.167-.115.222-.036,0-.2-.016-.258.031a.536.536,0,0,0-.34-.2A.318.318,0,0,0,.562.544.3.3,0,0,0,.5.734C.438.739.219.763.141.881a.181.181,0,0,0-.014.165.6.6,0,0,0-.091.134.245.245,0,0,0,.014.277,1.472,1.472,0,0,0,.176.177c.052.046.086.076.089.107A.234.234,0,0,0,.423,1.9a.12.12,0,0,0,.116,0l0,0v0c0-.006.046-.135.164-.128A1.535,1.535,0,0,0,.953,3.438a1.351,1.351,0,0,0,.068.634A.263.263,0,0,1,1,4.336a.444.444,0,0,0-.068.238.028.028,0,0,1,0,.024c-.016.017-.067.012-.112.008a.228.228,0,0,0-.124.008c-.078.049-.112.1-.1.167a.194.194,0,0,0-.082.106.156.156,0,0,0,.02.118.418.418,0,0,0-.117.1A.569.569,0,0,0,.3,5.5a.085.085,0,0,0-.046.021.132.132,0,0,0-.035.1.115.115,0,0,0,.034.1.063.063,0,0,0,.041.012.7.7,0,0,0,.479.619.231.231,0,0,0,.015.185.227.227,0,0,0,.192.087c.1,0,.239.007.387.007H2.932c.216,0,.41,0,.506-.007a.227.227,0,0,0,.192-.087.23.23,0,0,0,.015-.185.7.7,0,0,0,.479-.619.064.064,0,0,0,.041-.012.116.116,0,0,0,.034-.1.132.132,0,0,0-.035-.1A.085.085,0,0,0,4.118,5.5a.569.569,0,0,0-.11-.387.414.414,0,0,0-.117-.1.156.156,0,0,0,.02-.118.193.193,0,0,0-.082-.106c.009-.063-.024-.118-.1-.167A.225.225,0,0,0,3.6,4.607c-.045,0-.1.009-.112-.008a.028.028,0,0,1,0-.024.445.445,0,0,0-.069-.238A.258.258,0,0,1,3.4,4.073a1.354,1.354,0,0,0,.069-.635,1.725,1.725,0,0,0,.383-1.2,1.233,1.233,0,0,0-.139-.473c.118-.006.163.122.164.128v0l0,0a.119.119,0,0,0,.116,0A.233.233,0,0,0,4.1,1.742c0-.031.038-.062.09-.107a1.491,1.491,0,0,0,.175-.177C4.5,1.3,4.323,1.082,4.29,1.046Z" transform="translate(319.075 561.91) rotate(12)"/>
    <rect id="Rectangle_4174" data-name="Rectangle 4174" class="cls-5" width="12.692" height="0.508" rx="0.254" transform="translate(333.438 565.687) rotate(12)"/>
    <rect id="Rectangle_4184" data-name="Rectangle 4184" class="cls-6" width="12.692" height="1.523" rx="0.762" transform="translate(312.184 573.083) rotate(12)"/>
    <rect id="Rectangle_4185" data-name="Rectangle 4185" class="cls-5" width="10.154" height="0.508" rx="0.254" transform="translate(335.393 568.693) rotate(12)"/>
    <path id="Path_18026" data-name="Path 18026" class="cls-7" d="M3.648,0H0V3.648H3.648Zm-.73,2.918H.73V.73H2.918Z" transform="translate(333.338 574.504) rotate(12)"/>
    <rect id="Rectangle_4187" data-name="Rectangle 4187" class="cls-7" width="1.015" height="0.508" transform="translate(342.252 577.921) rotate(12)"/>
    <rect id="Rectangle_4188" data-name="Rectangle 4188" class="cls-7" width="0.508" height="1.015" transform="translate(339.595 575.801) rotate(12)"/>
    <path id="Path_18027" data-name="Path 18027" class="cls-7" d="M1.459,2.189h.73v-.73h.73V.73H.73V0H0V1.459H1.459Z" transform="translate(337.462 576.126) rotate(12)"/>
    <rect id="Rectangle_4189" data-name="Rectangle 4189" class="cls-7" width="1.015" height="1.015" transform="translate(336.979 578.354) rotate(12)"/>
    <rect id="Rectangle_4190" data-name="Rectangle 4190" class="cls-7" width="1.015" height="0.508" transform="translate(333.689 579.209) rotate(12)"/>
    <rect id="Rectangle_4439" data-name="Rectangle 4439" class="cls-2" width="79" height="79" rx="23" transform="translate(360 541) rotate(90)"/>
    <path id="Path_18074" data-name="Path 18074" class="cls-9" d="M-7778.2-1656.95s.735-3.3,2.571-3.142-.954,3.142-.954,3.142h1.362l.678-.369,1.88.369s.514-.688.983-.688.9.688.9.688l2.815.366" transform="translate(8113.961 2257.749)"/>
    <g id="Path_18035" data-name="Path 18035" class="cls-10" transform="translate(288.7 564.679)">
      <path class="cls-19" d="M 59.2809944152832 39.70616149902344 L 2.540613412857056 39.70616149902344 C 0.7261633276939392 39.70616149902344 -0.7499967217445374 38.2299919128418 -0.7499967217445374 36.41554260253906 L -0.7499967217445374 2.540622711181641 C -0.7499967217445374 0.7261726856231689 0.7261633276939392 -0.7499973177909851 2.540613412857056 -0.7499973177909851 L 59.2809944152832 -0.7499973177909851 C 61.09543228149414 -0.7499973177909851 62.57158279418945 0.7261726856231689 62.57158279418945 2.540622711181641 L 62.57158279418945 36.41554260253906 C 62.57158279418945 38.2299919128418 61.09543228149414 39.70616149902344 59.2809944152832 39.70616149902344 Z"/>
      <path class="cls-20" d="M 2.540603637695312 3.814697265625e-06 C 1.137474060058594 3.814697265625e-06 3.814697265625e-06 1.137474060058594 3.814697265625e-06 2.540622711181641 L 3.814697265625e-06 36.41554260253906 C 3.814697265625e-06 37.81869125366211 1.137474060058594 38.95616149902344 2.540603637695312 38.95616149902344 L 59.2809944152832 38.95616149902344 C 60.68411254882812 38.95616149902344 61.82158279418945 37.81869125366211 61.82158279418945 36.41554260253906 L 61.82158279418945 2.540622711181641 C 61.82158279418945 1.137474060058594 60.68411254882812 3.814697265625e-06 59.2809944152832 3.814697265625e-06 L 2.540603637695312 3.814697265625e-06 M 2.540603637695312 -1.499996185302734 L 59.2809944152832 -1.499996185302734 C 61.50898361206055 -1.499996185302734 63.32158279418945 0.3126144409179688 63.32158279418945 2.540622711181641 L 63.32158279418945 36.41554260253906 C 63.32158279418945 38.64355087280273 61.50898361206055 40.45616149902344 59.2809944152832 40.45616149902344 L 2.540603637695312 40.45616149902344 C 0.3126144409179688 40.45616149902344 -1.499996185302734 38.64355087280273 -1.499996185302734 36.41554260253906 L -1.499996185302734 2.540622711181641 C -1.499996185302734 0.3126144409179688 0.3126144409179688 -1.499996185302734 2.540603637695312 -1.499996185302734 Z"/>
    </g>
    <g id="Group_19510" data-name="Group 19510" transform="translate(300.118 583.206)">
      <rect id="Rectangle_4225" data-name="Rectangle 4225" class="cls-11" width="12.437" height="1.162" rx="0.581" transform="translate(12.438 0)"/>
      <rect id="Rectangle_4364" data-name="Rectangle 4364" class="cls-11" width="12.437" height="1.162" rx="0.581" transform="translate(12.438 3.733)"/>
      <rect id="Rectangle_4639" data-name="Rectangle 4639" class="cls-11" width="40.912" height="1.162" rx="0.581" transform="translate(0 12.304)"/>
    </g>
    <g id="Group_19509" data-name="Group 19509" transform="translate(327.577 578.142)">
      <path id="Path_16433" data-name="Path 16433" class="cls-12" d="M4.31,0H0V4.31H4.31ZM3.448,3.448H.862V.862H3.448Z" transform="translate(0 0.517)"/>
      <rect id="Rectangle_3793" data-name="Rectangle 3793" class="cls-12" width="1.285" height="0.643" transform="translate(2.283 1.928)"/>
      <path id="Path_16434" data-name="Path 16434" class="cls-12" d="M352,0V4.31h4.31V0Zm3.448,3.448h-2.586V.862h2.586Z" transform="translate(-342.518 0.517)"/>
      <rect id="Rectangle_3794" data-name="Rectangle 3794" class="cls-12" width="1.285" height="0.643" transform="translate(10.637 1.928)"/>
      <path id="Path_16435" data-name="Path 16435" class="cls-12" d="M0,356.31H4.31V352H0Zm.862-3.448H3.448v2.586H.862Z" transform="translate(0 -342.001)"/>
      <rect id="Rectangle_3795" data-name="Rectangle 3795" class="cls-12" width="1.285" height="1.285" transform="translate(2.283 11.567)"/>
      <rect id="Rectangle_3796" data-name="Rectangle 3796" class="cls-12" width="0.643" height="1.285" transform="translate(7.424)"/>
      <path id="Path_16436" data-name="Path 16436" class="cls-12" d="M193.724,34.586h.862v-.862h.862v-.862h-2.586V32H192v1.724h1.724Z" transform="translate(-186.828 -30.621)"/>
      <rect id="Rectangle_3797" data-name="Rectangle 3797" class="cls-12" width="1.285" height="0.643" transform="translate(5.496 4.498)"/>
      <path id="Path_16437" data-name="Path 16437" class="cls-12" d="M195.448,160h-.862v.862H192v.862h3.448Z" transform="translate(-186.828 -155.173)"/>
      <path id="Path_16438" data-name="Path 16438" class="cls-12" d="M.862,194.586h.862v-.862H.862V192H0v3.448H.862Z" transform="translate(0 -186.311)"/>
      <rect id="Rectangle_3798" data-name="Rectangle 3798" class="cls-12" width="1.285" height="0.643" transform="translate(2.283 5.783)"/>
      <path id="Path_16439" data-name="Path 16439" class="cls-12" d="M98.586,195.448h1.724v-.862h-.862v-.862H97.724V192h-.862v1.724H96v1.724h.862v-.862h1.724Z" transform="translate(-93.414 -186.311)"/>
      <rect id="Rectangle_3799" data-name="Rectangle 3799" class="cls-12" width="0.643" height="1.928" transform="translate(7.424 7.068)"/>
      <path id="Path_16440" data-name="Path 16440" class="cls-12" d="M194.586,352H192v.862h1.724v2.586H192v.862h2.586v-.862h1.724v-.862h-1.724Z" transform="translate(-186.828 -342.001)"/>
      <rect id="Rectangle_3800" data-name="Rectangle 3800" class="cls-12" width="1.285" height="1.285" transform="translate(5.496 11.567)"/>
      <rect id="Rectangle_3801" data-name="Rectangle 3801" class="cls-12" width="1.285" height="1.285" transform="translate(8.067 10.281)"/>
      <path id="Path_16441" data-name="Path 16441" class="cls-12" d="M386.586,416H384v2.586h.862v-1.724h1.724Z" transform="translate(-373.655 -404.277)"/>
      <rect id="Rectangle_3802" data-name="Rectangle 3802" class="cls-12" width="1.285" height="0.643" transform="translate(11.922 13.494)"/>
      <rect id="Rectangle_3803" data-name="Rectangle 3803" class="cls-12" width="0.643" height="1.285" transform="translate(12.564 10.281)"/>
      <path id="Path_16442" data-name="Path 16442" class="cls-12" d="M352.862,290.586h.862V288H352v.862h.862Z" transform="translate(-342.518 -279.725)"/>
      <path id="Path_16443" data-name="Path 16443" class="cls-12" d="M354.586,192.862h-.862V192h-.862v.862H352v.862h3.448v-.862h.862V192h-1.724Z" transform="translate(-342.518 -186.311)"/>
      <rect id="Rectangle_3804" data-name="Rectangle 3804" class="cls-12" width="1.285" height="0.643" transform="translate(11.922 8.354)"/>
    </g>
    <path id="Path_18309" data-name="Path 18309" class="cls-13" d="M481.847,405.638l.188.085a3.789,3.789,0,0,1,2.057,2.183.732.732,0,0,1,.1.366.307.307,0,0,1-.436.268.223.223,0,0,1-.118-.114,3.15,3.15,0,0,0-.779-1.252,3.376,3.376,0,0,0-2.58-1.077,3.483,3.483,0,0,0-3.207,2.135c-.022.045-.038.094-.061.138a.316.316,0,0,1-.331.151.272.272,0,0,1-.241-.228.639.639,0,0,1,.051-.245,3.908,3.908,0,0,1,2.139-2.357c.032-.014.063-.03.106-.051a3.014,3.014,0,0,1-1.481-2.658,2.918,2.918,0,0,1,.926-2.159,3.045,3.045,0,0,1,4.322.1,2.942,2.942,0,0,1,.795,2.512A2.994,2.994,0,0,1,481.847,405.638Zm-1.521-.3a2.324,2.324,0,1,0-2.356-2.288A2.366,2.366,0,0,0,480.326,405.338Z" transform="translate(-175.44 180.964)"/>
    <g id="Group_20351" data-name="Group 20351" class="cls-14" transform="translate(-354 240)">
      <g id="Group_14723" data-name="Group 14723" transform="translate(632 299)">
        <g id="Rectangle_3860" data-name="Rectangle 3860" class="cls-15">
          <rect class="cls-19" width="82" height="82"/>
          <rect class="cls-21" x="0.5" y="0.5" width="81" height="81"/>
        </g>
      </g>
      <g id="Ellipse_681" data-name="Ellipse 681" class="cls-16" transform="translate(648 315)">
        <circle class="cls-19" cx="25" cy="25" r="25"/>
        <circle class="cls-21" cx="25" cy="25" r="24.5"/>
      </g>
    </g>
    <g id="Rectangle_4643" data-name="Rectangle 4643" class="cls-17" transform="translate(301.583 571.39)">
      <rect class="cls-19" width="39.446" height="1.162" rx="0.581"/>
      <rect class="cls-21" x="0.5" y="0.5" width="38.446" height="0.162" rx="0.081"/>
    </g>
    <g id="Rectangle_4644" data-name="Rectangle 4644" class="cls-17" transform="translate(301.583 574.766)">
      <rect class="cls-19" width="39.446" height="1.162" rx="0.581"/>
      <rect class="cls-21" x="0.5" y="0.5" width="38.446" height="0.162" rx="0.081"/>
    </g>
    <path id="Path_8494" data-name="Path 8494" class="cls-18" d="M991.542,522.521c0-.27.18-.4.508-.408.3.028.524.217.5.431q0,2.044-.009,4.091a.867.867,0,0,0,.41.732,1.785,1.785,0,0,0,1.04.3c.671.005,1.343,0,2.014,0a1.885,1.885,0,0,0,1.1-.312.916.916,0,0,0,.435-.777c.02-1.163.049-2.327.066-3.488q.041-2.546.068-5.091c.013-1.4.011-2.791.021-4.187,0-.246,0-.515,0-.761-.009-.57-.623-1.006-1.435-1.01a15.688,15.688,0,0,0-1.979-.007c-.783.078-.849.106-1.154.32a.95.95,0,0,0-.455.809c0,.211-.123,1.7-.127,1.907l-.886-.285c0-.36-.006-1.375,0-1.734v-.024c.053-.815.886-1.5,2.025-1.672a22.209,22.209,0,0,1,2.679-.02,3.368,3.368,0,0,1,1.094.22,1.7,1.7,0,0,1,1.29,1.659c-.034,1.394-.044,2.787-.063,4.181-.024,1.641-.053,3.281-.067,4.922-.013,1.4.009,2.791-.017,4.187a1.594,1.594,0,0,1-.758,1.339,3.273,3.273,0,0,1-1.906.539c-.58-.015-1.162-.014-1.741,0a3.207,3.207,0,0,1-1.943-.509,1.532,1.532,0,0,1-.745-1.357C991.591,525.186,991.534,523.853,991.542,522.521Z" transform="translate(-651.082 46.085)"/>
  </g>
</svg>
