<svg xmlns="http://www.w3.org/2000/svg" width="82" height="82" viewBox="0 0 82 82">
  <defs>
    <style>
      .cls-1, .cls-10, .cls-12, .cls-14, .cls-16, .cls-19, .cls-21, .cls-6, .cls-7, .cls-8 {
        fill: none;
      }

      .cls-1 {
        opacity: 0.98;
      }

      .cls-2, .cls-4 {
        fill: #fff;
      }

      .cls-2 {
        stroke: #29398d;
      }

      .cls-15, .cls-16, .cls-2, .cls-3 {
        stroke-width: 1.5px;
      }

      .cls-11, .cls-15, .cls-3 {
        fill: #f6f7fb;
      }

      .cls-3 {
        stroke: #0875e2;
      }

      .cls-4, .cls-7 {
        opacity: 0.458;
      }

      .cls-5 {
        fill: #ffeab2;
        opacity: 0.801;
      }

      .cls-6 {
        stroke: #22d59e;
      }

      .cls-6, .cls-8 {
        stroke-width: 0.5px;
      }

      .cls-7 {
        stroke: #fff;
      }

      .cls-14, .cls-16, .cls-7 {
        stroke-linecap: round;
      }

      .cls-8 {
        stroke: #255788;
      }

      .cls-9 {
        fill: #e7f1fc;
      }

      .cls-10, .cls-9 {
        stroke: #e7f1fc;
      }

      .cls-12, .cls-14 {
        stroke: #84baf0;
      }

      .cls-13 {
        fill: #84baf0;
      }

      .cls-15, .cls-16 {
        stroke: #2a3a8d;
      }

      .cls-16 {
        stroke-linejoin: round;
        stroke-dasharray: 16 6;
      }

      .cls-17 {
        fill: #2a3a8d;
      }

      .cls-18 {
        opacity: 0;
      }

      .cls-19 {
        stroke: #e2e2e2;
      }

      .cls-20, .cls-22 {
        stroke: none;
      }

      .cls-22 {
        fill: #0875e2;
      }
    </style>
  </defs>
  <g id="Group_20360" data-name="Group 20360" transform="translate(-564 -237)">
    <g id="Group_19543" data-name="Group 19543" transform="translate(3.32 10.32)">
      <rect id="Rectangle_4434" data-name="Rectangle 4434" class="cls-1" width="70" height="70" rx="23" transform="translate(636.68 232.68) rotate(90)"/>
      <path id="Path_17992" data-name="Path 17992" class="cls-2" d="M12.2,173.052l-7.511,5.127C2.1,178.178,0,170.951,0,168.36a4.692,4.692,0,0,1,4.691-4.692H35.244a3.978,3.978,0,0,1,3.979,3.979v2" transform="translate(573.653 97.446)"/>
      <g id="Rectangle_4160" data-name="Rectangle 4160" class="cls-3" transform="translate(589.605 258.263)">
        <rect class="cls-20" width="41.272" height="28.269" rx="4"/>
        <rect class="cls-21" x="0.75" y="0.75" width="39.772" height="26.769" rx="3.25"/>
      </g>
      <rect id="Rectangle_4179" data-name="Rectangle 4179" class="cls-4" width="16.396" height="2.261" rx="1.131" transform="translate(611.089 262.788)"/>
      <rect id="Rectangle_4162" data-name="Rectangle 4162" class="cls-4" width="2.827" height="2.261" rx="1.131" transform="translate(593.004 280.312)"/>
      <rect id="Rectangle_4180" data-name="Rectangle 4180" class="cls-4" width="2.261" height="2.261" rx="1.131" transform="translate(598.657 280.312)"/>
      <rect id="Rectangle_4163" data-name="Rectangle 4163" class="cls-5" width="6.784" height="6.219" rx="3" transform="translate(593.003 262.222)"/>
      <path id="Path_18019" data-name="Path 18019" class="cls-6" d="M-7479.4-1070.683v2.456" transform="translate(8077.771 1334.64)"/>
      <path id="Path_17993" data-name="Path 17993" class="cls-6" d="M-7479.4-1070.683v2.456" transform="translate(8074.351 1334.64)"/>
      <path id="Path_17994" data-name="Path 17994" class="cls-6" d="M-7472.318-1065.656h-7.08" transform="translate(8072.396 1329.626)"/>
      <path id="Path_17995" data-name="Path 17995" class="cls-6" d="M-7472.318-1065.656h-7.08" transform="translate(8072.396 1332.069)"/>
      <path id="Path_18020" data-name="Path 18020" class="cls-7" d="M-7474.762-1047.012l-.548,1.89" transform="translate(8072.26 1327.418)"/>
      <g id="Rectangle_4164" data-name="Rectangle 4164" class="cls-3" transform="translate(582.747 257.304) rotate(-16)">
        <rect class="cls-20" width="41.043" height="28.34" rx="4"/>
        <rect class="cls-21" x="0.75" y="0.75" width="39.543" height="26.84" rx="3.25"/>
      </g>
      <rect id="Rectangle_4165" data-name="Rectangle 4165" class="cls-4" width="2.443" height="1.954" rx="0.977" transform="translate(592.102 277.495) rotate(-16)"/>
      <rect id="Rectangle_4182" data-name="Rectangle 4182" class="cls-4" width="2.443" height="1.954" rx="0.977" transform="translate(597.268 276.013) rotate(-16)"/>
      <rect id="Rectangle_4166" data-name="Rectangle 4166" class="cls-5" width="6.841" height="5.863" rx="2.932" transform="translate(587.12 260.119) rotate(-16)"/>
      <path id="Path_17996" data-name="Path 17996" class="cls-8" d="M0,0V2.456" transform="translate(592.545 260.249) rotate(-16)"/>
      <path id="Path_17997" data-name="Path 17997" class="cls-8" d="M0,0V2.456" transform="translate(589.258 261.192) rotate(-16)"/>
      <path id="Path_17998" data-name="Path 17998" class="cls-8" d="M7.079,0H0" transform="translate(587.383 261.743) rotate(-16)"/>
      <path id="Path_17999" data-name="Path 17999" class="cls-8" d="M7.079,0H0" transform="translate(588.056 264.091) rotate(-16)"/>
      <path id="Path_18000" data-name="Path 18000" class="cls-7" d="M.549,0,0,1.89" transform="translate(595.711 276.453) rotate(-16)"/>
      <g id="Rectangle_4181" data-name="Rectangle 4181" class="cls-9" transform="translate(604.628 255.606) rotate(-16)">
        <rect class="cls-20" width="16.124" height="1.954" rx="0.977"/>
        <rect class="cls-21" x="0.5" y="0.5" width="15.124" height="0.954" rx="0.477"/>
      </g>
      <g id="Group_19496" data-name="Group 19496" transform="translate(596.07 259.607)">
        <g id="Rectangle_4043" data-name="Rectangle 4043" class="cls-10" transform="translate(0 7.792) rotate(-16)">
          <rect class="cls-20" width="7.915" height="2.827" rx="1.413"/>
          <rect class="cls-21" x="0.5" y="0.5" width="6.915" height="1.827" rx="0.913"/>
        </g>
        <g id="Rectangle_4043-2" data-name="Rectangle 4043" class="cls-9" transform="translate(9.782 4.987) rotate(-16)">
          <rect class="cls-20" width="7.915" height="2.827" rx="1.413"/>
          <rect class="cls-21" x="0.5" y="0.5" width="6.915" height="1.827" rx="0.913"/>
        </g>
        <g id="Rectangle_4043-3" data-name="Rectangle 4043" class="cls-9" transform="translate(19.565 2.182) rotate(-16)">
          <rect class="cls-20" width="7.915" height="2.827" rx="1.413"/>
          <rect class="cls-21" x="0.5" y="0.5" width="6.915" height="1.827" rx="0.913"/>
        </g>
      </g>
      <g id="Ellipse_904" data-name="Ellipse 904" class="cls-9" transform="translate(615.983 268.615) rotate(-16)">
        <circle class="cls-20" cx="2.443" cy="2.443" r="2.443"/>
        <circle class="cls-21" cx="2.443" cy="2.443" r="1.943"/>
      </g>
      <g id="Ellipse_905" data-name="Ellipse 905" class="cls-9" transform="translate(619.271 267.672) rotate(-16)">
        <circle class="cls-20" cx="2.443" cy="2.443" r="2.443"/>
        <circle class="cls-21" cx="2.443" cy="2.443" r="1.943"/>
      </g>
      <g id="Path_18001" data-name="Path 18001" class="cls-11" transform="matrix(0.755, -0.656, 0.656, 0.755, 572.811, 261.202)">
        <path class="cls-20" d="M 37.08586120605469 27.58953666687012 L 3.957602262496948 27.58953666687012 C 2.18892240524292 27.58953666687012 0.7500023245811462 26.1506175994873 0.7500023245811462 24.38193702697754 L 0.7500023245811462 3.957597494125366 C 0.7500023245811462 2.188917398452759 2.18892240524292 0.7499973773956299 3.957602262496948 0.7499973773956299 L 37.08586120605469 0.7499973773956299 C 38.85454177856445 0.7499973773956299 40.29346084594727 2.188917398452759 40.29346084594727 3.957597494125366 L 40.29346084594727 24.38193702697754 C 40.29346084594727 26.1506175994873 38.85454177856445 27.58953666687012 37.08586120605469 27.58953666687012 Z"/>
        <path class="cls-22" d="M 3.957603454589844 1.499998092651367 C 2.602474212646484 1.499998092651367 1.500003814697266 2.602466583251953 1.500003814697266 3.957597732543945 L 1.500003814697266 24.38193702697754 C 1.500003814697266 25.73706817626953 2.602474212646484 26.83953666687012 3.957603454589844 26.83953666687012 L 37.08586120605469 26.83953666687012 C 38.44099426269531 26.83953666687012 39.54346084594727 25.73706817626953 39.54346084594727 24.38193702697754 L 39.54346084594727 3.957597732543945 C 39.54346084594727 2.602466583251953 38.44099426269531 1.499998092651367 37.08586120605469 1.499998092651367 L 3.957603454589844 1.499998092651367 M 3.957603454589844 -1.9073486328125e-06 L 37.08586120605469 -1.9073486328125e-06 C 39.27158355712891 -1.9073486328125e-06 41.04346084594727 1.771877288818359 41.04346084594727 3.957597732543945 L 41.04346084594727 24.38193702697754 C 41.04346084594727 26.56765747070312 39.27158355712891 28.33953666687012 37.08586120605469 28.33953666687012 L 3.957603454589844 28.33953666687012 C 1.771873474121094 28.33953666687012 3.814697265625e-06 26.56765747070312 3.814697265625e-06 24.38193702697754 L 3.814697265625e-06 3.957597732543945 C 3.814697265625e-06 1.771877288818359 1.771873474121094 -1.9073486328125e-06 3.957603454589844 -1.9073486328125e-06 Z"/>
      </g>
      <rect id="Rectangle_4168" data-name="Rectangle 4168" class="cls-4" width="2.443" height="1.954" rx="0.977" transform="matrix(0.755, -0.656, 0.656, 0.755, 589.814, 275.545)"/>
      <rect id="Rectangle_4169" data-name="Rectangle 4169" class="cls-4" width="2.443" height="1.954" rx="0.977" transform="matrix(0.755, -0.656, 0.656, 0.755, 593.87, 272.02)"/>
      <path id="Path_18006" data-name="Path 18006" class="cls-7" d="M.549,0,0,1.89" transform="matrix(0.755, -0.656, 0.656, 0.755, 592.645, 273.076)"/>
      <g id="Group_19498" data-name="Group 19498" transform="translate(578.878 239.837)">
        <g id="Rectangle_4167" data-name="Rectangle 4167" class="cls-12" transform="matrix(0.755, -0.656, 0.656, 0.755, 13.04, 10.578)">
          <rect class="cls-20" width="16.124" height="1.954" rx="0.977"/>
          <rect class="cls-21" x="0.5" y="0.5" width="15.124" height="0.954" rx="0.477"/>
        </g>
        <g id="Group_19497" data-name="Group 19497" transform="translate(11.571 6.601)">
          <rect id="Rectangle_4043-4" data-name="Rectangle 4043" class="cls-13" width="7.915" height="2.827" rx="1.413" transform="matrix(0.755, -0.656, 0.656, 0.755, -1, 20.546)"/>
          <rect id="Rectangle_4043-5" data-name="Rectangle 4043" class="cls-13" width="7.915" height="2.827" rx="1.413" transform="matrix(0.755, -0.656, 0.656, 0.755, 6.68, 13.869)"/>
          <rect id="Rectangle_4043-6" data-name="Rectangle 4043" class="cls-13" width="7.915" height="2.827" rx="1.413" transform="matrix(0.755, -0.656, 0.656, 0.755, 14.361, 7.193)"/>
        </g>
        <g id="Group_19493" data-name="Group 19493" transform="translate(0 18.787)">
          <path id="Path_18002" data-name="Path 18002" class="cls-12" d="M0,0V2.456" transform="matrix(0.755, -0.656, 0.656, 0.755, 4.048, 1.108)"/>
          <path id="Path_18003" data-name="Path 18003" class="cls-12" d="M0,0V2.456" transform="matrix(0.755, -0.656, 0.656, 0.755, 1.467, 3.352)"/>
          <path id="Path_18004" data-name="Path 18004" class="cls-14" d="M7.079,0H0" transform="matrix(0.755, -0.656, 0.656, 0.755, 0, 4.644)"/>
          <path id="Path_18005" data-name="Path 18005" class="cls-14" d="M7.079,0H0" transform="matrix(0.755, -0.656, 0.656, 0.755, 1.603, 6.488)"/>
        </g>
        <circle id="Ellipse_906" data-name="Ellipse 906" class="cls-13" cx="2.443" cy="2.443" r="2.443" transform="matrix(0.755, -0.656, 0.656, 0.755, 28.829, 17.57)"/>
        <circle id="Ellipse_907" data-name="Ellipse 907" class="cls-13" cx="2.443" cy="2.443" r="2.443" transform="matrix(0.755, -0.656, 0.656, 0.755, 31.41, 15.326)"/>
      </g>
      <path id="Path_18007" data-name="Path 18007" class="cls-15" d="M39.223,217.851V236.42a3.978,3.978,0,0,1-3.979,3.979H4.691A4.691,4.691,0,0,1,0,235.707V209.18a4.691,4.691,0,0,0,4.691,4.692H35.244A3.979,3.979,0,0,1,39.223,217.851Zm0,0" transform="translate(573.653 56.621)"/>
      <path id="Path_18009" data-name="Path 18009" class="cls-16" d="M-30.684-7.674c.8,2.524,6.844,1.78,6.844,1.78H.572S3.4-5.58,3.4-2.99V10.8" transform="translate(605.934 279.919)"/>
      <path id="Path_18010" data-name="Path 18010" class="cls-16" d="M-30.649-9.888c.8,2.524,6.834,1.844,6.834,1.844H1.3C3.959-8.043,3.333-12,3.333-12" transform="translate(605.934 301.75)"/>
      <path id="Path_18021" data-name="Path 18021" class="cls-17" d="M280.253,353.166A1.688,1.688,0,1,1,279,351.532,1.689,1.689,0,0,1,280.253,353.166Zm0,0" transform="translate(325.889 -69.537)"/>
    </g>
    <g id="Group_20348" data-name="Group 20348" class="cls-18" transform="translate(-68 -62)">
      <g id="Group_14723" data-name="Group 14723" transform="translate(632 299)">
        <g id="Rectangle_3860" data-name="Rectangle 3860" class="cls-19">
          <rect class="cls-20" width="82" height="82"/>
          <rect class="cls-21" x="0.5" y="0.5" width="81" height="81"/>
        </g>
      </g>
    </g>
  </g>
</svg>
